<svg xmlns="http://www.w3.org/2000/svg" width="21" height="21" viewBox="0 0 21 21">
  <g id="Group_9103" data-name="Group 9103" transform="translate(-5184.5 -1027.5)">
    <g id="Group_9099" data-name="Group 9099">
      <g id="u-turn" transform="translate(5184.5 1048.5) rotate(-90)">
        <g id="Group_9095" data-name="Group 9095">
          <path id="Path_31875" data-name="Path 31875" d="M20.744,4.994a.875.875,0,0,1-1.237,0L17.5,2.987V12.25a8.75,8.75,0,0,1-17.5,0V.875a.875.875,0,1,1,1.75,0V12.25a7,7,0,0,0,14,0V2.987L13.744,4.994a.875.875,0,0,1-1.237-1.237l3.5-3.5h0c.02-.02.042-.039.064-.058L16.1.175l.038-.028.038-.023L16.213.1l.04-.019L16.29.067,16.33.052l.042-.015.04-.01.043-.011L16.5.01,16.539,0a.881.881,0,0,1,.173,0L16.75.01,16.8.017l.043.011.04.01.042.015.039.014L17,.084l.04.019.035.021.038.023.037.028L17.18.2c.022.018.043.037.063.057h0l3.5,3.5A.875.875,0,0,1,20.744,4.994Z" fill="#707070"/>
        </g>
      </g>
    </g>
  </g>
</svg>
