<svg xmlns="http://www.w3.org/2000/svg" width="24.406" height="24.403" viewBox="0 0 24.406 24.403">
  <g id="Group_9102" data-name="Group 9102" transform="translate(-5064.583 -1025.284)">
    <g id="Group_9100" data-name="Group 9100">
      <g id="house-flood_1_" data-name="house-flood (1)" transform="translate(5064.583 1025.284)">
        <path id="Path_31869" data-name="Path 31869" d="M1.017,19.555a3.05,3.05,0,0,1,2.022.768.526.526,0,0,0,.215-.069,3.028,3.028,0,0,1,3.864-1.771v-.2a5.07,5.07,0,0,1,2.672-4.447c.051-.028.1-.057.155-.084a5.1,5.1,0,0,1,.586-.247c.137-.05.277-.093.42-.13s.316-.071.479-.1c.089-.014.173-.045.264-.054.157-.015.305-.018.463-.019h.064a5.089,5.089,0,0,1,.937.095c.035.007.069.01.1.017a5.058,5.058,0,0,1,.848.264c.039.015.077.029.116.047a5.084,5.084,0,0,1,.754.407l.113.075a5.123,5.123,0,0,1,.654.54c.033.032.063.063.095.1a5.246,5.246,0,0,1,.543.657l.069.1a5.206,5.206,0,0,1,.416.766c.013.033.024.065.038.1a5.094,5.094,0,0,1,.27.869.4.4,0,0,0,.011.068,5.092,5.092,0,0,1,.1.985v.2a3.032,3.032,0,0,1,3.864,1.772.486.486,0,0,0,.219.071,3.06,3.06,0,0,1,2-.778,2.949,2.949,0,0,1,1.037.2V12.063a2.034,2.034,0,0,0-.572-1.415L15.19,1.307A4.067,4.067,0,0,0,9.443,1.08c-.078.073-.154.148-.226.227L.591,10.645A2.034,2.034,0,0,0,0,12.078v7.668a3.021,3.021,0,0,1,1.017-.191Z" transform="translate(0.001 0.001)" fill="#003571"/>
        <path id="Path_31870" data-name="Path 31870" d="M9.231,20a2.969,2.969,0,0,1,2.819-1.949A3.05,3.05,0,0,1,14.9,20.017a.574.574,0,0,0,.2.034h0V18.035a3.05,3.05,0,0,0-6.1,0v2.015A.463.463,0,0,0,9.231,20Z" transform="translate(0.151 0.252)" fill="#003571"/>
        <path id="Path_31871" data-name="Path 31871" d="M21.352,24.067a4.448,4.448,0,0,1-3.05-1.246,4.409,4.409,0,0,1-6.1,0,4.409,4.409,0,0,1-6.1,0,4.256,4.256,0,0,1-5.763.2A1.017,1.017,0,1,1,1.7,21.511a2.237,2.237,0,0,0,3.447-.836A1.017,1.017,0,0,1,6.1,20h0a1.017,1.017,0,0,1,.959.678,2.316,2.316,0,0,0,4.183,0A1.017,1.017,0,0,1,12.2,20h0a1.017,1.017,0,0,1,.959.678,2.316,2.316,0,0,0,4.183,0A1.017,1.017,0,0,1,18.3,20h0a1.017,1.017,0,0,1,.959.678,2.237,2.237,0,0,0,3.446.837,1.017,1.017,0,0,1,1.358,1.512,4.048,4.048,0,0,1-2.713,1.04Z" transform="translate(0.001 0.336)" fill="#003571"/>
      </g>
    </g>
  </g>
</svg>
